/* XPM */
static char * FATAL [] = {
"32 32 3 1",
" 	s None	c None",
".	s hole	m white	g white	c black",
"X	s skull	m black	g black	c khaki",
"           .........            ",
"         ..XXXXXXXXX..          ",
"        .XXXXXXXXXXXXX.         ",
"       .XXXXXXXXXXXXXXX.        ",
"       .XXXXXXXXXXXXXXX.        ",
"      .XXX...XXXXX...XXX.       ",
"      .XX.....XXX.....XX.       ",
"     .XX......XXX......XX.      ",
"     .XXX.....XXX.....XXX.      ",
"     .XXXXXXXXXXXXXXXXXXX.      ",
"     .XXXXXXXX...XXXXXXXX.      ",
"     .XXXXXXXX...XXXXXXXX.      ",
"      .XXXXXXX...XXXXXXX.       ",
"      .XXXXXX.....XXXXXX.       ",
"       .XXXXX.....XXXXX.        ",
"       .XXXXXX...XXXXXX.        ",
"        .XXXXXXXXXXXXX.         ",
"         .XXXXXXXXXXX.          ",
"          .XX.....XX.           ",
"           .........            ",
"            .XXXXX.             ",
"           .XXXXXXX.            ",
"           .XXXXXXX.            ",
"           .XXXXXXX.            ",
"   ...      .......      .....  ",
"  .XXX....            ....XXX.  ",
"  .XXXXXXX.....  .....XXXXXXX.  ",
"   ...XXXXXXXXX..XXXXXXXXX....  ",
"      ....XXXXXXXXXXXX....      ",
"     ...XXXXXXXXXXXXXXXX...     ",
"    .XXXXXX..........XXXXXX.    ",
"    .......          .......    "};
