/* XPM */
static char * INFO [] = {
"32 32 4 1",
" 	s None	c None",
".	c steelblue",
"X	c gray100",
"o	c black",
"   ..........................   ",
"  ............................  ",
" ...XXXXXXXXXXXXXXXXXXXXXXXX... ",
"...XXXXXXXXXXXXXXXXXXXXXXXXXX...",
"..XXXXXXXXXXXXXoooXXXXXXXXXXXX..",
"..XXXXXXXXXXXXoooooXXXXXXXXXXX..",
"..XXXXXXXXXXXXoooooXXXXXXXXXXX..",
"..XXXXXXXXXXXXoooooXXXXXXXXXXX..",
"..XXXXXXXXXXXXXoooXXXXXXXXXXXX..",
"..XXXXXXXXXXXXXXXXXXXXXXXXXXXX..",
"..XXXXXXXXXXXXXXXXXXXXXXXXXXXX..",
"..XXXXXXXXXXXXXXXXXXXXXXXXXXXX..",
"..XXXXXXXXXooooooooXXXXXXXXXXX..",
"..XXXXXXXXXXXooooooXXXXXXXXXXX..",
"..XXXXXXXXXXXXoooooXXXXXXXXXXX..",
"..XXXXXXXXXXXXoooooXXXXXXXXXXX..",
"..XXXXXXXXXXXXoooooXXXXXXXXXXX..",
"..XXXXXXXXXXXXoooooXXXXXXXXXXX..",
"..XXXXXXXXXXXXoooooXXXXXXXXXXX..",
"..XXXXXXXXXXXXoooooXXXXXXXXXXX..",
"..XXXXXXXXXXXXoooooXXXXXXXXXXX..",
"..XXXXXXXXXXXXoooooXXXXXXXXXXX..",
"..XXXXXXXXXXXXoooooXXXXXXXXXXX..",
"..XXXXXXXXXXXXoooooXXXXXXXXXXX..",
"..XXXXXXXXXXXXoooooXXXXXXXXXXX..",
"..XXXXXXXXXXXXoooooXXXXXXXXXXX..",
"..XXXXXXXXXXXoooooooXXXXXXXXXX..",
"..XXXXXXXXXoooooooooooXXXXXXXX..",
"...XXXXXXXXXXXXXXXXXXXXXXXXXX...",
" ...XXXXXXXXXXXXXXXXXXXXXXXX... ",
"  ............................  ",
"   ..........................   "};
